HIERARCHY
ROOT Hips
{
	OFFSET -339.306915 540.749023 89.171944
	CHANNELS 6 Xposition Yposition Zposition Zrotation Yrotation Xrotation
	JOINT Spine
	{
		OFFSET 0.000000 2.080078 8.814247
		CHANNELS 6 Xposition Yposition Zposition Zrotation Yrotation Xrotation
		JOINT Spine1
		{
			OFFSET 0.000000 0.000000 8.844139
			CHANNELS 6 Xposition Yposition Zposition Zrotation Yrotation Xrotation
			JOINT Spine2
			{
				OFFSET 0.000000 0.000000 11.682266
				CHANNELS 6 Xposition Yposition Zposition Zrotation Yrotation Xrotation
				JOINT Spine3
				{
					OFFSET 0.000000 0.000000 11.746696
					CHANNELS 6 Xposition Yposition Zposition Zrotation Yrotation Xrotation
					JOINT Neck
					{
						OFFSET 0.000000 0.000000 17.658264
						CHANNELS 6 Xposition Yposition Zposition Zrotation Yrotation Xrotation
						JOINT Neck1
						{
							OFFSET 0.000000 0.000000 5.101517
							CHANNELS 6 Xposition Yposition Zposition Zrotation Yrotation Xrotation
							JOINT Head
							{
								OFFSET 0.000000 0.000000 5.101517
								CHANNELS 6 Xposition Yposition Zposition Zrotation Yrotation Xrotation
								JOINT HeadEnd
								{
									OFFSET 0.000000 0.000000 11.655090
									CHANNELS 6 Xposition Yposition Zposition Zrotation Yrotation Xrotation
									End Site
									{
										OFFSET 0.000000 0.000000 0.100006
									}
								}
							}
						}
					}
					JOINT RightShoulder
					{
						OFFSET -2.625397 0.000000 11.175217
						CHANNELS 6 Xposition Yposition Zposition Zrotation Yrotation Xrotation
						JOINT RightArm
						{
							OFFSET 0.000000 0.000000 10.434708
							CHANNELS 6 Xposition Yposition Zposition Zrotation Yrotation Xrotation
							JOINT RightForeArm
							{
								OFFSET 0.000000 0.000000 29.628418
								CHANNELS 6 Xposition Yposition Zposition Zrotation Yrotation Xrotation
								JOINT RightHand
								{
									OFFSET 0.000000 0.000000 22.857605
									CHANNELS 6 Xposition Yposition Zposition Zrotation Yrotation Xrotation
									JOINT RightHandThumb1
									{
										OFFSET -2.867310 -2.944275 3.959564
										CHANNELS 6 Xposition Yposition Zposition Zrotation Yrotation Xrotation
										JOINT RightHandThumb2
										{
											OFFSET 0.000000 0.000000 3.350403
											CHANNELS 6 Xposition Yposition Zposition Zrotation Yrotation Xrotation
											JOINT RightHandThumb3
											{
												OFFSET 0.000000 0.000000 3.756516
												CHANNELS 6 Xposition Yposition Zposition Zrotation Yrotation Xrotation
												JOINT RightHandThumb4
												{
													OFFSET 0.000000 0.000000 3.147339
													CHANNELS 6 Xposition Yposition Zposition Zrotation Yrotation Xrotation
													End Site
													{
														OFFSET 0.000000 0.000000 0.100006
													}
												}
											}
										}
									}
									JOINT RightHandIndex1
									{
										OFFSET -0.086761 -2.345276 10.030899
										CHANNELS 6 Xposition Yposition Zposition Zrotation Yrotation Xrotation
										JOINT RightHandIndex2
										{
											OFFSET 0.000000 0.000000 4.061096
											CHANNELS 6 Xposition Yposition Zposition Zrotation Yrotation Xrotation
											JOINT RightHandIndex3
											{
												OFFSET 0.000000 0.000000 3.248871
												CHANNELS 6 Xposition Yposition Zposition Zrotation Yrotation Xrotation
												JOINT RightHandIndex4
												{
													OFFSET 0.000000 0.000000 2.639709
													CHANNELS 6 Xposition Yposition Zposition Zrotation Yrotation Xrotation
													End Site
													{
														OFFSET 0.000000 0.000000 0.100006
													}
												}
											}
										}
									}
									JOINT RightHandMiddle1
									{
										OFFSET 0.104095 -0.006775 9.502945
										CHANNELS 6 Xposition Yposition Zposition Zrotation Yrotation Xrotation
										JOINT RightHandMiddle2
										{
											OFFSET 0.000000 0.000000 4.568726
											CHANNELS 6 Xposition Yposition Zposition Zrotation Yrotation Xrotation
											JOINT RightHandMiddle3
											{
												OFFSET 0.000000 0.000000 3.654984
												CHANNELS 6 Xposition Yposition Zposition Zrotation Yrotation Xrotation
												JOINT RightHandMiddle4
												{
													OFFSET 0.000000 0.000000 2.741241
													CHANNELS 6 Xposition Yposition Zposition Zrotation Yrotation Xrotation
													End Site
													{
														OFFSET 0.000000 0.000000 0.100006
													}
												}
											}
										}
									}
									JOINT RightHandRing1
									{
										OFFSET 0.086761 2.267456 8.921707
										CHANNELS 6 Xposition Yposition Zposition Zrotation Yrotation Xrotation
										JOINT RightHandRing2
										{
											OFFSET 0.000000 0.000000 4.061096
											CHANNELS 6 Xposition Yposition Zposition Zrotation Yrotation Xrotation
											JOINT RightHandRing3
											{
												OFFSET 0.000000 0.000000 3.654984
												CHANNELS 6 Xposition Yposition Zposition Zrotation Yrotation Xrotation
												JOINT RightHandRing4
												{
													OFFSET 0.000000 0.000000 2.741241
													CHANNELS 6 Xposition Yposition Zposition Zrotation Yrotation Xrotation
													End Site
													{
														OFFSET 0.000000 0.000000 0.100006
													}
												}
											}
										}
									}
									JOINT RightHandPinky1
									{
										OFFSET -0.173492 4.467224 7.976990
										CHANNELS 6 Xposition Yposition Zposition Zrotation Yrotation Xrotation
										JOINT RightHandPinky2
										{
											OFFSET 0.000000 0.000000 3.350403
											CHANNELS 6 Xposition Yposition Zposition Zrotation Yrotation Xrotation
											JOINT RightHandPinky3
											{
												OFFSET 0.000000 0.000000 2.842758
												CHANNELS 6 Xposition Yposition Zposition Zrotation Yrotation Xrotation
												JOINT RightHandPinky4
												{
													OFFSET 0.000000 0.000000 2.639709
													CHANNELS 6 Xposition Yposition Zposition Zrotation Yrotation Xrotation
													End Site
													{
														OFFSET 0.000000 0.000000 0.100006
													}
												}
											}
										}
									}
									JOINT RightForeArmEnd
									{
										OFFSET 0.000000 0.000000 0.000000
										CHANNELS 6 Xposition Yposition Zposition Zrotation Yrotation Xrotation
										End Site
										{
											OFFSET 0.000000 0.000000 0.100006
										}
									}
								}
								JOINT RightArmEnd
								{
									OFFSET 0.000000 0.000000 0.000000
									CHANNELS 6 Xposition Yposition Zposition Zrotation Yrotation Xrotation
									End Site
									{
										OFFSET 0.000000 0.000000 0.100006
									}
								}
							}
						}
					}
					JOINT LeftShoulder
					{
						OFFSET 2.625397 0.000000 11.175217
						CHANNELS 6 Xposition Yposition Zposition Zrotation Yrotation Xrotation
						JOINT LeftArm
						{
							OFFSET 0.000000 0.000000 10.813629
							CHANNELS 6 Xposition Yposition Zposition Zrotation Yrotation Xrotation
							JOINT LeftForeArm
							{
								OFFSET 0.000000 0.000000 28.724777
								CHANNELS 6 Xposition Yposition Zposition Zrotation Yrotation Xrotation
								JOINT LeftHand
								{
									OFFSET 0.644379 0.328857 25.716171
									CHANNELS 6 Xposition Yposition Zposition Zrotation Yrotation Xrotation
									JOINT LeftHandThumb1
									{
										OFFSET 2.867310 -2.944275 3.959564
										CHANNELS 6 Xposition Yposition Zposition Zrotation Yrotation Xrotation
										JOINT LeftHandThumb2
										{
											OFFSET 0.000000 0.000000 3.350403
											CHANNELS 6 Xposition Yposition Zposition Zrotation Yrotation Xrotation
											JOINT LeftHandThumb3
											{
												OFFSET 0.000000 0.000000 3.756516
												CHANNELS 6 Xposition Yposition Zposition Zrotation Yrotation Xrotation
												JOINT LeftHandThumb4
												{
													OFFSET 0.000000 0.000000 3.100006
													CHANNELS 6 Xposition Yposition Zposition Zrotation Yrotation Xrotation
													End Site
													{
														OFFSET 0.000000 0.000000 0.100006
													}
												}
											}
										}
									}
									JOINT LeftHandIndex1
									{
										OFFSET 0.086761 -2.345276 10.030899
										CHANNELS 6 Xposition Yposition Zposition Zrotation Yrotation Xrotation
										JOINT LeftHandIndex2
										{
											OFFSET 0.000000 0.000000 4.061096
											CHANNELS 6 Xposition Yposition Zposition Zrotation Yrotation Xrotation
											JOINT LeftHandIndex3
											{
												OFFSET 0.000000 0.000000 3.248871
												CHANNELS 6 Xposition Yposition Zposition Zrotation Yrotation Xrotation
												JOINT LeftHandIndex4
												{
													OFFSET 0.000000 0.000000 2.639709
													CHANNELS 6 Xposition Yposition Zposition Zrotation Yrotation Xrotation
													End Site
													{
														OFFSET 0.000000 0.000000 0.100006
													}
												}
											}
										}
									}
									JOINT LeftHandMiddle1
									{
										OFFSET -0.104095 -0.006775 9.502945
										CHANNELS 6 Xposition Yposition Zposition Zrotation Yrotation Xrotation
										JOINT LeftHandMiddle2
										{
											OFFSET 0.000000 0.000000 4.568726
											CHANNELS 6 Xposition Yposition Zposition Zrotation Yrotation Xrotation
											JOINT LeftHandMiddle3
											{
												OFFSET 0.000000 0.000000 3.654984
												CHANNELS 6 Xposition Yposition Zposition Zrotation Yrotation Xrotation
												JOINT LeftHandMiddle4
												{
													OFFSET 0.000000 0.000000 2.741241
													CHANNELS 6 Xposition Yposition Zposition Zrotation Yrotation Xrotation
													End Site
													{
														OFFSET 0.000000 0.000000 0.100006
													}
												}
											}
										}
									}
									JOINT LeftHandRing1
									{
										OFFSET -0.086761 2.267456 8.921707
										CHANNELS 6 Xposition Yposition Zposition Zrotation Yrotation Xrotation
										JOINT LeftHandRing2
										{
											OFFSET 0.000000 0.000000 4.061096
											CHANNELS 6 Xposition Yposition Zposition Zrotation Yrotation Xrotation
											JOINT LeftHandRing3
											{
												OFFSET 0.000000 0.000000 3.654984
												CHANNELS 6 Xposition Yposition Zposition Zrotation Yrotation Xrotation
												JOINT LeftHandRing4
												{
													OFFSET 0.000000 0.000000 2.741241
													CHANNELS 6 Xposition Yposition Zposition Zrotation Yrotation Xrotation
													End Site
													{
														OFFSET 0.000000 0.000000 0.100006
													}
												}
											}
										}
									}
									JOINT LeftHandPinky1
									{
										OFFSET 0.173492 4.467224 7.976990
										CHANNELS 6 Xposition Yposition Zposition Zrotation Yrotation Xrotation
										JOINT LeftHandPinky2
										{
											OFFSET 0.000000 0.000000 3.350403
											CHANNELS 6 Xposition Yposition Zposition Zrotation Yrotation Xrotation
											JOINT LeftHandPinky3
											{
												OFFSET 0.000000 0.000000 2.842758
												CHANNELS 6 Xposition Yposition Zposition Zrotation Yrotation Xrotation
												JOINT LeftHandPinky4
												{
													OFFSET 0.000000 0.000000 2.639709
													CHANNELS 6 Xposition Yposition Zposition Zrotation Yrotation Xrotation
													End Site
													{
														OFFSET 0.000000 0.000000 0.100006
													}
												}
											}
										}
									}
									JOINT LeftForeArmEnd
									{
										OFFSET 0.000000 0.000000 0.000000
										CHANNELS 6 Xposition Yposition Zposition Zrotation Yrotation Xrotation
										End Site
										{
											OFFSET 0.000000 0.000000 0.100006
										}
									}
								}
								JOINT LeftArmEnd
								{
									OFFSET 0.000000 0.000000 0.000000
									CHANNELS 6 Xposition Yposition Zposition Zrotation Yrotation Xrotation
									End Site
									{
										OFFSET 0.000000 0.000000 0.100006
									}
								}
							}
						}
					}
				}
			}
		}
	}
	JOINT RightUpLeg
	{
		OFFSET -11.289948 0.000000 0.000000
		CHANNELS 6 Xposition Yposition Zposition Zrotation Yrotation Xrotation
		JOINT RightLeg
		{
			OFFSET 0.000000 0.000000 -38.200329
			CHANNELS 6 Xposition Yposition Zposition Zrotation Yrotation Xrotation
			JOINT RightFoot
			{
				OFFSET 0.000000 0.000000 -39.900856
				CHANNELS 6 Xposition Yposition Zposition Zrotation Yrotation Xrotation
				JOINT RightToeBase
				{
					OFFSET 0.000000 -15.261658 0.000001
					CHANNELS 6 Xposition Yposition Zposition Zrotation Yrotation Xrotation
					JOINT RightToeBaseEnd
					{
						OFFSET 0.000000 -7.370728 0.000001
						CHANNELS 6 Xposition Yposition Zposition Zrotation Yrotation Xrotation
						End Site
						{
							OFFSET 0.000000 0.000000 0.100000
						}
					}
				}
				JOINT RightLegEnd
				{
					OFFSET 0.000000 0.000000 0.000000
					CHANNELS 6 Xposition Yposition Zposition Zrotation Yrotation Xrotation
					End Site
					{
						OFFSET 0.000000 0.000000 0.100000
					}
				}
			}
			JOINT RightUpLegEnd
			{
				OFFSET 0.000000 0.000000 0.000000
				CHANNELS 6 Xposition Yposition Zposition Zrotation Yrotation Xrotation
				End Site
				{
					OFFSET 0.000000 0.000000 0.099998
				}
			}
		}
	}
	JOINT LeftUpLeg
	{
		OFFSET 11.315674 0.000000 0.000000
		CHANNELS 6 Xposition Yposition Zposition Zrotation Yrotation Xrotation
		JOINT LeftLeg
		{
			OFFSET 0.000000 0.000000 -38.200329
			CHANNELS 6 Xposition Yposition Zposition Zrotation Yrotation Xrotation
			JOINT LeftFoot
			{
				OFFSET 0.000000 0.000000 -39.900856
				CHANNELS 6 Xposition Yposition Zposition Zrotation Yrotation Xrotation
				JOINT LeftToeBase
				{
					OFFSET 0.000000 -15.261658 0.000001
					CHANNELS 6 Xposition Yposition Zposition Zrotation Yrotation Xrotation
					JOINT LeftToeBaseEnd
					{
						OFFSET 0.000000 -7.539978 0.000001
						CHANNELS 6 Xposition Yposition Zposition Zrotation Yrotation Xrotation
						End Site
						{
							OFFSET 0.000000 0.000000 0.100000
						}
					}
				}
				JOINT LeftLegEnd
				{
					OFFSET 0.000000 0.000000 0.000000
					CHANNELS 6 Xposition Yposition Zposition Zrotation Yrotation Xrotation
					End Site
					{
						OFFSET 0.000000 0.000000 0.100000
					}
				}
			}
			JOINT LeftUpLegEnd
			{
				OFFSET 0.000000 0.000000 0.000000
				CHANNELS 6 Xposition Yposition Zposition Zrotation Yrotation Xrotation
				End Site
				{
					OFFSET 0.000000 0.000000 0.099998
				}
			}
		}
	}
}
MOTION
Frames: 2
Frame Time: 0.016667
45.072632 -40.416016 87.694679 -12.412163 -0.622127 -5.839880 -0.000011 2.080090 8.814259 -0.011856 3.254969 8.341819 0.000014 -0.000010 8.844151 0.039594 -0.570725 4.377274 0.000008 0.000021 11.682278 -0.102190 -0.987403 2.237237 -0.000003 0.000003 11.746690 0.067834 -2.399648 0.769973 -0.000007 -0.000013 17.658268 5.715770 2.474303 4.947471 -0.000012 0.000024 5.101526 5.213051 -1.093020 -2.121071 0.000010 0.000028 5.101537 0.546885 0.631504 -15.022914 0.000001 0.000001 11.655120 -0.000000 -0.000000 -0.000000 -2.625414 0.000017 11.175204 5.512962 -85.881904 0.062294 -0.000015 0.000018 10.434708 -28.194874 -75.991360 22.828678 -0.000002 0.000038 29.628447 13.571797 -0.848831 25.105072 0.000008 -0.000042 22.857590 18.148637 43.723340 6.514178 -2.867310 -2.944275 3.959564 33.202834 -11.604876 61.041619 0.000014 0.000021 3.350403 -0.590016 0.577980 -1.181748 0.000005 0.000011 3.756520 -0.408474 0.402650 -0.820927 0.000018 -0.000000 3.147334 0.000000 0.000000 -0.000001 -0.086761 -2.345287 10.030914 19.312507 38.399054 24.371285 -0.000011 -0.000008 4.061101 -0.480793 -0.000168 0.000547 -0.000001 0.000024 3.248865 0.017255 0.000005 -0.002856 -0.000013 -0.000011 2.639711 0.000002 -0.000001 0.000001 0.104106 -0.006763 9.502960 12.015903 36.625277 18.544237 -0.000036 0.000027 4.568708 -0.726015 0.000039 -0.000455 -0.000041 -0.000023 3.654970 -0.192419 -0.000147 -0.004461 -0.000026 -0.000004 2.741241 0.000000 -0.000001 0.000000 0.086761 2.267443 8.921730 0.855977 31.592319 10.325883 0.000002 -0.000022 4.061088 1.359388 0.000085 -0.000006 -0.000001 -0.000028 3.654989 0.281705 -0.000030 0.009370 0.000008 -0.000008 2.741247 0.000001 0.000001 -0.000001 -0.173492 4.467220 7.976971 -9.766663 25.103604 4.927082 -0.000012 -0.000022 3.350405 2.134278 -0.000001 0.000115 -0.000009 0.000014 2.842769 0.106209 -0.000000 0.017918 -0.000001 -0.000001 2.639713 -0.000001 -0.000000 0.000000 -0.000007 0.000009 -0.000014 -0.000002 0.000000 0.000001 -0.000006 -0.000060 0.000007 0.000000 0.000000 -0.000001 2.625399 -0.000000 11.175215 -11.785032 85.349887 -0.260538 0.000008 -0.000015 10.813644 47.548618 68.694395 42.832109 0.000000 -0.000008 28.724783 -20.917058 1.400702 40.577379 0.644363 0.328770 25.716175 -11.604282 -30.076782 -7.236529 2.867317 -2.944214 3.959625 -33.066875 11.900331 60.484023 -0.000004 0.000005 3.350418 1.191934 -1.143608 -2.370799 -0.000014 0.000020 3.756513 0.822712 -0.799449 -1.644338 0.000004 0.000005 3.100000 -0.000001 0.000003 -0.000001 0.086800 -2.345212 10.030899 2.908315 -38.304353 12.733154 0.000013 0.000005 4.061103 -0.543281 -0.000004 -0.027367 -0.000001 0.000028 3.248895 -0.037594 -0.000004 -0.018406 -0.000015 0.000003 2.639730 -0.000001 -0.000000 -0.000001 -0.104107 -0.006725 9.502937 -2.795946 -35.251006 12.221549 0.000013 -0.000019 4.568712 -0.597501 -0.000056 -0.198837 0.000022 0.000088 3.655002 -0.087844 -0.000008 -0.185696 0.000015 0.000011 2.741268 -0.000003 -0.000002 -0.000002 -0.086754 2.267546 8.921700 -11.262522 -30.325050 11.242637 0.000010 -0.000071 4.061087 1.193573 0.000047 0.228155 0.000014 -0.000027 3.654985 0.276424 -0.000003 0.180297 0.000015 0.000007 2.741251 -0.000000 -0.000000 -0.000000 0.173485 4.467278 7.976982 -19.328708 -24.967917 8.405910 -0.000007 0.000006 3.350394 2.294661 0.000144 -0.000035 0.000007 -0.000021 2.842753 0.250211 0.010376 0.000421 -0.000012 0.000001 2.639719 -0.000000 0.000000 -0.000001 0.000016 0.000067 0.000005 -0.000001 -0.000004 0.000001 -0.000021 -0.000003 0.000032 -0.000001 0.000003 -0.000005 -11.289932 -0.000005 0.000019 -1.041099 8.878048 -7.655866 0.000009 0.000065 -38.200298 0.522175 -0.379377 35.999069 0.000012 0.000035 -39.900852 -19.953491 0.834421 8.565612 0.000016 -15.261635 0.000009 -1.443915 1.723837 -24.298948 -0.000000 -7.370637 -0.000000 -0.000005 0.000001 -0.000001 0.000004 0.000071 0.000001 -0.000002 -0.000002 -0.000003 -0.000000 0.000001 -0.000005 0.000000 0.000000 0.000000 11.315712 0.000057 0.000011 30.279274 4.255488 4.855348 -0.000022 0.000098 -38.200317 -0.079068 0.018504 12.906725 -0.000005 -0.000003 -39.900856 17.153223 -3.474396 12.719096 -0.000015 -15.261657 -0.000011 -0.653667 -0.260359 -17.697592 -0.000040 -7.539975 0.000001 -0.000001 -0.000001 0.000001 0.000008 0.000016 -0.000002 -0.000003 -0.000002 -0.000000 0.000001 -0.000003 -0.000011 0.000001 0.000000 -0.000001 
44.932495 -40.383362 87.573334 -13.263435 -0.817527 -6.187265 0.000001 2.080102 8.814230 0.068407 3.099964 8.438248 -0.000006 -0.000012 8.844143 0.134378 -0.661701 4.390251 0.000008 0.000004 11.682271 0.298603 -0.780074 2.268383 -0.000011 -0.000024 11.746708 0.269286 -1.849027 0.961621 -0.000046 -0.000014 17.658260 6.058651 2.158485 6.119417 -0.000004 -0.000002 5.101511 5.760987 -1.581666 -1.667659 -0.000014 -0.000016 5.101537 0.611914 0.311335 -14.899161 -0.000001 -0.000000 11.655090 0.000000 -0.000000 -0.000000 -2.625404 -0.000006 11.175222 5.509280 -85.551644 0.060940 0.000000 0.000021 10.434708 -29.556790 -76.694186 24.166265 0.000002 -0.000011 29.628433 10.485925 0.260233 24.151952 -0.000015 -0.000099 22.857582 20.961866 43.780522 6.285077 -2.867302 -2.944244 3.959549 33.202799 -11.604895 61.042630 -0.000009 -0.000010 3.350409 -0.590045 0.577946 -1.183532 0.000012 0.000001 3.756524 -0.408447 0.402710 -0.820160 0.000013 0.000005 3.147338 -0.000001 0.000001 -0.000003 -0.086765 -2.345264 10.030884 19.153997 38.048812 24.003935 0.000014 0.000000 4.061090 -0.480995 -0.000244 0.000540 0.000005 0.000013 3.248870 0.017070 0.000004 -0.002866 0.000008 0.000001 2.639717 -0.000001 0.000002 0.000001 0.104086 -0.006794 9.502960 11.856115 36.151778 18.561792 -0.000005 -0.000031 4.568721 -0.725523 -0.000001 -0.000455 0.000015 -0.000004 3.654993 -0.192301 -0.000130 -0.004411 0.000034 0.000057 2.741253 0.000000 0.000000 -0.000000 0.086765 2.267464 8.921730 0.766684 31.102168 10.841949 0.000002 -0.000020 4.061102 1.359327 -0.000017 -0.000011 -0.000015 -0.000022 3.654972 0.281688 0.000009 0.009429 0.000008 -0.000005 2.741241 0.000001 0.000000 -0.000000 -0.173500 4.467236 7.976978 -9.791112 24.846927 5.831090 0.000013 0.000005 3.350416 2.132525 0.018062 0.000786 0.000006 -0.000003 2.842778 0.104699 -0.009761 0.017642 0.000011 0.000004 2.639690 -0.000001 0.000000 -0.000000 -0.000005 -0.000038 -0.000018 -0.000004 -0.000000 0.000001 0.000003 0.000001 0.000030 0.000000 -0.000000 0.000000 2.625397 0.000010 11.175222 -11.818083 85.941750 -0.314189 0.000015 0.000007 10.813637 48.457064 66.227399 44.749463 -0.000038 0.000015 28.724731 -20.649139 1.412987 44.564983 0.644356 0.328842 25.716198 -9.475921 -30.677354 -5.871616 2.867325 -2.944275 3.959579 -33.000920 12.049471 60.205884 -0.000014 0.000016 3.350428 1.497319 -1.421724 -2.967838 -0.000002 -0.000001 3.756508 1.031959 -0.995563 -2.056957 -0.000007 -0.000002 3.099997 0.000000 -0.000001 0.000001 0.086792 -2.345262 10.030922 3.108941 -37.035683 11.240542 -0.000001 -0.000007 4.061120 -0.543476 0.028827 -0.027402 -0.000013 0.000017 3.248879 -0.037756 -0.015871 -0.018413 0.000012 -0.000003 2.639703 0.000002 0.000001 0.000002 -0.104103 -0.006752 9.502960 -2.621181 -34.431400 10.843631 -0.000015 -0.000006 4.568729 -0.597386 -0.000108 -0.196856 -0.000011 0.000008 3.655006 -0.087738 -0.000009 -0.183841 0.000008 -0.000004 2.741250 0.000000 0.000001 0.000000 -0.086758 2.267475 8.921730 -11.226866 -30.226859 10.111032 0.000004 0.000018 4.061117 1.193467 0.000106 0.229366 -0.000013 0.000026 3.654997 0.276810 -0.000003 0.181298 -0.000012 -0.000002 2.741256 0.000000 -0.000001 -0.000003 0.173492 4.467231 7.976997 -19.433369 -25.348744 7.842354 0.000001 -0.000028 3.350397 2.294461 0.000176 -0.000034 0.000006 -0.000030 2.842764 0.249763 0.012960 0.000430 0.000005 0.000004 2.639729 0.000000 0.000000 -0.000003 0.000001 0.000002 0.000001 -0.000001 0.000001 0.000001 -0.000002 0.000019 0.000021 -0.000001 0.000003 -0.000004 -11.289963 -0.000020 -0.000004 0.276217 9.710062 -7.180656 -0.000029 0.000018 -38.200306 0.516193 -0.391592 36.963228 0.000007 0.000018 -39.900848 -19.736904 0.746013 8.682285 0.000000 -15.261662 0.000000 -1.536852 1.797316 -24.341759 -0.000007 -7.370648 0.000001 -0.000003 -0.000002 -0.000002 -0.000002 0.000061 -0.000003 0.000000 0.000000 0.000001 0.000002 0.000006 -0.000000 -0.000001 0.000001 0.000003 11.315566 0.000026 0.000013 30.909075 4.077389 4.658866 -0.000029 0.000082 -38.200321 -0.091595 0.022945 14.063550 -0.000003 0.000027 -39.900867 17.463472 -3.173169 12.175333 -0.000006 -15.261661 0.000001 -0.707390 -0.268077 -17.491530 -0.000010 -7.539989 0.000001 0.000002 0.000000 0.000001 -0.000013 0.000012 0.000001 -0.000002 -0.000001 0.000001 -0.000012 0.000004 -0.000011 -0.000001 -0.000000 0.000001 
